<?xml version="1.0" encoding="UTF-8"?>
<svg id="BG" xmlns="http://www.w3.org/2000/svg" viewBox="0 0 800 71.49">
  <defs>
    <style>
      .cls-1 {
        fill: #ee7625;
      }

      .cls-2 {
        fill: #182640;
      }
    </style>
  </defs>
  <g>
    <path class="cls-2" d="M178.37,32.02c0-4.71-3.02-7.52-7.3-7.52-3.65,0-6.95,3.3-6.95,7.09s2.46,5.76,7.52,7.37c11.24,3.58,15.38,7.8,15.38,16.79s-6.74,15.73-15.94,15.73-15.87-6.6-16.01-16.36h7.59c.07,5.62,3.37,9.41,8.43,9.41s8.36-3.65,8.36-8.78c0-3.79-1.69-6.18-7.23-8.08-12.85-4.35-15.66-8.57-15.66-15.94,0-7.94,6.53-14.19,14.54-14.19,8.57,0,14.75,5.41,14.89,14.47h-7.59Z"/>
    <path class="cls-2" d="M227.26,70.51v-6.04h-.14c-2.74,4.64-7.66,7.02-13.2,7.02-11.38,0-20.65-8.57-20.65-19.81,0-12.43,8.92-21.14,20.37-21.14,5.69,0,10.46,2.11,13.48,6.53h.14v-5.48h7.3v38.91h-7.3ZM227.4,51.13c0-7.59-5.48-13.91-13.55-13.91-7.3,0-13.27,6.25-13.27,13.91s5.97,13.7,13.27,13.7,13.55-6.32,13.55-13.7Z"/>
    <path class="cls-2" d="M294.65,70.51v-21.77c0-7.37-3.09-11.52-9.2-11.52-6.46,0-9.27,3.58-9.27,11.38v21.91h-7.3v-22.61c0-7.66-3.58-10.67-8.85-10.67-6.46,0-9.62,3.79-9.62,11.45v21.84h-7.3V31.6h6.74v4.21h.14c3.16-3.72,6.11-5.27,11.17-5.27s10.11,2.46,12.08,6.53c2.81-4.42,6.67-6.53,12.85-6.53,10.11,0,15.87,6.32,15.87,16.36v23.6h-7.3Z"/>
    <path class="cls-2" d="M310.44,70.51V18.54h7.3v18.47h.14c3.16-4.28,8.08-6.46,13.34-6.46,11.03,0,20.16,9.27,20.16,20.51s-8.57,20.44-19.53,20.44c-5.62,0-10.82-2.25-14.05-6.6h-.14v5.62h-7.23ZM344.08,51.06c0-7.37-5.83-13.84-13.34-13.84s-13.2,6.32-13.2,13.7,5.83,13.91,13.27,13.91,13.27-6.18,13.27-13.77Z"/>
    <path class="cls-2" d="M389.49,70.51v-6.04h-.14c-2.74,4.64-7.66,7.02-13.2,7.02-11.38,0-20.65-8.57-20.65-19.81,0-12.43,8.92-21.14,20.37-21.14,5.69,0,10.46,2.11,13.48,6.53h.14v-5.48h7.3v38.91h-7.3ZM389.63,51.13c0-7.59-5.48-13.91-13.55-13.91-7.3,0-13.27,6.25-13.27,13.91s5.97,13.7,13.27,13.7,13.55-6.32,13.55-13.7Z"/>
    <path class="cls-2" d="M439.23,70.51l-25.71-40.17h-.14v40.17h-7.58V18.54h8.29l25.28,39.54h.14V18.54h7.58v51.97h-7.87Z"/>
    <path class="cls-2" d="M474.67,71.49c-10.96,0-20.72-9.34-20.72-20.3,0-11.87,9.34-20.65,21.28-20.65,10.75,0,20.86,8.43,20.72,20.79-.14,10.39-8.85,20.16-21.28,20.16ZM474.88,37.22c-7.3,0-13.63,6.18-13.63,13.77s6.11,13.84,13.48,13.84,13.9-6.04,13.9-13.91-6.11-13.7-13.76-13.7Z"/>
    <path class="cls-2" d="M511.72,70.51l-15.45-38.91h7.8l10.18,27.81h.14l9.97-27.81h7.8l-15.31,38.91h-5.13Z"/>
    <path class="cls-2" d="M566.6,70.51v-6.04h-.14c-2.74,4.64-7.66,7.02-13.2,7.02-11.38,0-20.65-8.57-20.65-19.81,0-12.43,8.92-21.14,20.37-21.14,5.69,0,10.46,2.11,13.48,6.53h.14v-5.48h7.3v38.91h-7.3ZM566.74,51.13c0-7.59-5.48-13.91-13.55-13.91-7.3,0-13.27,6.25-13.27,13.91s5.97,13.7,13.27,13.7,13.55-6.32,13.55-13.7Z"/>
    <path class="cls-2" d="M644.57,57.66c-5.27,9.06-13.62,13.84-24.02,13.84-14.4,0-26.27-12.92-26.27-26.76,0-15.66,12.36-27.18,26.34-27.18,9.83,0,19.03,4.49,24.3,14.26h-9.13c-3.93-4.57-8.5-7.3-14.61-7.3-10.89,0-19.31,9.2-19.31,19.53,0,10.89,8.22,20.51,18.89,20.51,5.41,0,10.25-2.11,14.47-6.88h9.34Z"/>
    <path class="cls-2" d="M650.9,70.51V18.54h7.3v51.97h-7.3Z"/>
    <path class="cls-2" d="M685.15,71.49c-10.96,0-20.72-9.34-20.72-20.3,0-11.87,9.34-20.65,21.28-20.65,10.75,0,20.86,8.43,20.72,20.79-.14,10.39-8.85,20.16-21.28,20.16ZM685.36,37.22c-7.3,0-13.63,6.18-13.63,13.77s6.11,13.84,13.48,13.84,13.9-6.04,13.9-13.91-6.11-13.7-13.76-13.7Z"/>
    <path class="cls-2" d="M740.12,70.51v-4.21h-.14c-1.9,3.3-6.32,5.2-11.45,5.2-8.36,0-16.22-4.49-16.22-18.19v-21.7h7.3v21.14c0,8.15,3.02,12.08,9.69,12.08s10.18-4.71,10.18-12.22v-21h7.3v38.91h-6.67Z"/>
    <path class="cls-2" d="M787.26,70.51v-5.55h-.14c-3.02,4.21-8.08,6.53-13.77,6.53-11.31,0-20.23-8.57-20.23-20.02s8.43-20.93,20.02-20.93c5.27,0,10.25,1.9,13.41,5.83h.14v-17.84h7.3v51.97h-6.74ZM773.7,37.22c-7.44,0-13.27,6.25-13.27,13.91s5.97,13.7,13.27,13.7,13.55-6.04,13.55-13.41c0-7.94-5.34-14.19-13.55-14.19Z"/>
  </g>
  <g>
    <g>
      <path class="cls-1" d="M42.3,28.21C18.97,28.21,0,47.19,0,70.51h7.06c0-19.43,15.81-35.24,35.24-35.24h0c19.43,0,35.24,15.81,35.24,35.24h7.06c0-23.32-18.97-42.3-42.3-42.3Z"/>
      <path class="cls-1" d="M42.3,42.22h0c-15.6,0-28.3,12.69-28.3,28.3h7.06c0-11.71,9.53-21.24,21.24-21.24h0c11.71,0,21.24,9.53,21.24,21.24h7.06c0-15.6-12.69-28.3-28.3-28.3Z"/>
      <path class="cls-1" d="M42.3,56.34h0c-7.82,0-14.17,6.36-14.17,14.18h7.06c0-3.92,3.19-7.12,7.12-7.12h0c3.92,0,7.12,3.19,7.12,7.12h7.06c0-7.82-6.36-14.18-14.17-14.18Z"/>
    </g>
    <path class="cls-2" d="M112.17,42.98c-2.41-10.52-10.69-18.81-21.2-21.24C88.01,9.32,76.84.04,63.53,0h0s-.03,0-.05,0c-.01,0-.03,0-.04,0h0c-15.56.05-28.21,12.72-28.21,28.3v.52c2.3-.39,4.65-.6,7.06-.6h0c.05-11.66,9.52-21.13,21.18-21.15,11.06.02,20.16,8.54,21.11,19.37v1.64s.05,0,.08,0c0,.08,0,.15,0,.23h3.02c9.34,1.37,16.72,8.85,17.95,18.24v2.74c.06,0,.12,0,.19,0,0,0,0,.01,0,.02h.89c8.76.44,16.13,6.21,18.94,14.12h-41.67c.39,2.31.61,4.67.61,7.09h49.35c0-13.36-9.3-24.57-21.77-27.53Z"/>
  </g>
</svg>