<!DOCTYPE svg PUBLIC "-//W3C//DTD SVG 1.1//EN" "http://www.w3.org/Graphics/SVG/1.1/DTD/svg11.dtd">
<!-- Uploaded to: SVG Repo, www.svgrepo.com, Transformed by: SVG Repo Mixer Tools -->
<svg xmlns="http://www.w3.org/2000/svg" aria-label="Bitbucket" role="img" viewBox="-51.2 -51.2 614.40 614.40" width="800px" height="800px" fill="#000000">
<g id="SVGRepo_bgCarrier" stroke-width="0">
<rect x="-51.2" y="-51.2" width="614.40" height="614.40" rx="0" fill="#ffffff" strokewidth="0"/>
</g>
<g id="SVGRepo_tracerCarrier" stroke-linecap="round" stroke-linejoin="round"/>
<g id="SVGRepo_iconCarrier">
<rect width="512" height="512" rx="15%" fill="#ffffff"/>
<path fill="#2684ff" d="M422 130a10 10 0 00-9.9-11.7H100.5a10 10 0 00-10 11.7L136 409a10 10 0 009.9 8.4h221c5 0 9.2-3.5 10 -8.4L422 130zM291 316.8h-69.3l-18.7-98h104.8z"/>
<path fill="url(#a)" d="M59.632 25.2H40.94l-3.1 18.3h-13v18.9H52c1 0 1.7-.7 1.8-1.6l5.8-35.6z" transform="translate(89.8 85) scale(5.3285)"/>
<linearGradient id="a" x2="1" gradientTransform="rotate(141 22.239 22.239) scale(31.4)" gradientUnits="userSpaceOnUse">
<stop offset="0" stop-color="#0052cc"/>
<stop offset="1" stop-color="#2684ff"/>
</linearGradient>
</g>
</svg>